<svg width="1444" height="791" viewBox="0 0 1444 791" fill="none" xmlns="http://www.w3.org/2000/svg">
<g filter="url(#filter0_d_78:256)">
<path fill-rule="evenodd" clip-rule="evenodd" d="M2 739.434C3.59395 738.993 5.20943 738.512 6.84665 737.991C30.5568 730.443 57.4164 717.117 85.489 703.19C149.446 671.461 219.699 636.607 273.354 659.83C298.842 670.863 326.198 688.253 355.061 706.601C413.624 743.829 478.388 785 546.337 785C608.619 785 663.73 756.134 717.98 727.718C764.829 703.179 811.036 678.977 860.666 673.99C912.772 668.754 1051.78 679.204 1180.79 688.902C1316.96 699.139 1442 708.538 1442 697.778V0H2.00009C2.00009 0 2.00006 0.000104084 2 0.000312175V739.434Z" fill="url(#paint0_linear_78:256)"/>
</g>
<path d="M959.464 363.536C957.512 361.583 957.512 358.417 959.464 356.464L991.284 324.645C993.237 322.692 996.403 322.692 998.355 324.645C1000.31 326.597 1000.31 329.763 998.355 331.716L970.071 360L998.355 388.284C1000.31 390.237 1000.31 393.403 998.355 395.355C996.403 397.308 993.237 397.308 991.284 395.355L959.464 363.536ZM1208 355.394L1211.19 359.243L1208 355.394ZM1255.97 315.606L1252.78 311.757L1255.97 315.606ZM1442 316H1268.74V306H1442V316ZM1259.17 319.454L1211.19 359.243L1204.81 351.546L1252.78 311.757L1259.17 319.454ZM1195.23 365H1082.72V355H1195.23V365ZM1082.72 365H963V355H1082.72V365ZM1211.19 359.243C1206.71 362.963 1201.06 365 1195.23 365V355C1198.73 355 1202.12 353.778 1204.81 351.546L1211.19 359.243ZM1268.74 316C1265.24 316 1261.86 317.222 1259.17 319.454L1252.78 311.757C1257.27 308.037 1262.91 306 1268.74 306V316Z" fill="url(#paint1_linear_78:256)" fill-opacity="0.41"/>
<path d="M1077.23 404.768C1076.26 403.791 1076.26 402.209 1077.23 401.232L1093.14 385.322C1094.12 384.346 1095.7 384.346 1096.68 385.322C1097.65 386.299 1097.65 387.882 1096.68 388.858L1082.54 403L1096.68 417.142C1097.65 418.118 1097.65 419.701 1096.68 420.678C1095.7 421.654 1094.12 421.654 1093.14 420.678L1077.23 404.768ZM1266.41 396.491L1264.56 394.804L1266.41 396.491ZM1299.28 360.509L1301.13 362.196L1299.28 360.509ZM1442 356.5H1314.05V351.5H1442V356.5ZM1301.13 362.196L1268.25 398.177L1264.56 394.804L1297.44 358.823L1301.13 362.196ZM1251.64 405.5H1169.73V400.5H1251.64V405.5ZM1169.73 405.5H1079V400.5H1169.73V405.5ZM1268.25 398.177C1263.99 402.842 1257.96 405.5 1251.64 405.5V400.5C1256.56 400.5 1261.25 398.433 1264.56 394.804L1268.25 398.177ZM1314.05 356.5C1309.13 356.5 1304.45 358.567 1301.13 362.196L1297.44 358.823C1301.7 354.158 1307.73 351.5 1314.05 351.5V356.5Z" fill="url(#paint2_linear_78:256)" fill-opacity="0.41"/>
<path d="M525 585C525 557.386 547.386 535 575 535H607V618C607 645.614 584.614 668 557 668H525V585Z" fill="white" fill-opacity="0.15"/>
<path d="M513.667 675.969C513.688 703.583 491.318 725.985 463.704 726.006L444.084 726.02L444.037 663.052C444.017 635.437 466.386 613.035 494 613.014L513.62 613L513.667 675.969Z" fill="white" fill-opacity="0.15"/>
<path d="M923.667 104.969C923.688 132.583 901.318 154.985 873.704 155.006L854.084 155.02L854.037 92.0515C854.017 64.4373 876.386 42.0349 904 42.0144L923.62 41.9999L923.667 104.969Z" fill="white" fill-opacity="0.15"/>
<path d="M1356.06 615.942C1356.08 643.557 1333.71 665.959 1306.1 665.979L1251.13 666.02L1251.04 545.686C1251.02 518.072 1273.39 495.669 1301 495.649L1355.97 495.608L1356.06 615.942Z" fill="white" fill-opacity="0.15"/>
<path d="M206 240C206 212.386 228.386 190 256 190H354V380C354 407.614 331.614 430 304 430H206V240Z" fill="white" fill-opacity="0.15"/>
<path d="M185.855 484.907C185.875 512.521 163.506 534.923 135.892 534.944L60.151 535L60.0369 380.968C60.0165 353.354 82.3856 330.951 110 330.931L185.74 330.875L185.855 484.907Z" fill="white" fill-opacity="0.15"/>
<path d="M514.536 108.536C516.488 106.583 516.488 103.417 514.536 101.464L482.716 69.6447C480.763 67.692 477.597 67.692 475.645 69.6447C473.692 71.5973 473.692 74.7631 475.645 76.7157L503.929 105L475.645 133.284C473.692 135.237 473.692 138.403 475.645 140.355C477.597 142.308 480.763 142.308 482.716 140.355L514.536 108.536ZM251.129 100.766L254.206 96.8245L251.129 100.766ZM199.201 60.234L196.124 64.1755L199.201 60.234ZM2 61H186.895V51H2V61ZM196.124 64.1755L248.053 104.707L254.206 96.8245L202.277 56.2926L196.124 64.1755ZM263.435 110H383.777V100H263.435V110ZM383.777 110H511V100H383.777V110ZM248.053 104.707C252.447 108.137 257.861 110 263.435 110V100C260.091 100 256.842 98.8823 254.206 96.8245L248.053 104.707ZM186.895 61C190.239 61 193.488 62.1177 196.124 64.1755L202.277 56.2926C197.883 52.8628 192.469 51 186.895 51V61Z" fill="url(#paint3_linear_78:256)" fill-opacity="0.41"/>
<path d="M388.768 149.768C389.744 148.791 389.744 147.209 388.768 146.232L372.858 130.322C371.882 129.346 370.299 129.346 369.322 130.322C368.346 131.299 368.346 132.882 369.322 133.858L383.464 148L369.322 162.142C368.346 163.118 368.346 164.701 369.322 165.678C370.299 166.654 371.882 166.654 372.858 165.678L388.768 149.768ZM188.647 141.918L186.852 143.658L188.647 141.918ZM152.95 105.082L154.746 103.342L152.95 105.082ZM2 101.5H138.588V96.5H2V101.5ZM151.155 106.822L186.852 143.658L190.442 140.178L154.746 103.342L151.155 106.822ZM203.01 150.5H290.77V145.5H203.01V150.5ZM290.77 150.5H387V145.5H290.77V150.5ZM186.852 143.658C191.09 148.031 196.92 150.5 203.01 150.5V145.5C198.273 145.5 193.739 143.58 190.442 140.178L186.852 143.658ZM138.588 101.5C143.324 101.5 147.859 103.42 151.155 106.822L154.746 103.342C150.508 98.9686 144.678 96.5 138.588 96.5V101.5Z" fill="url(#paint4_linear_78:256)" fill-opacity="0.41"/>
<path fill-rule="evenodd" clip-rule="evenodd" d="M1442 378H1423C1395.39 378 1373 400.386 1373 428V579H1442V378Z" fill="white" fill-opacity="0.15"/>
<path fill-rule="evenodd" clip-rule="evenodd" d="M939.736 0C937.328 5.85783 936 12.2738 936 19V102H968C995.614 102 1018 79.6142 1018 52V0H939.736Z" fill="white" fill-opacity="0.15"/>
<defs>
<filter id="filter0_d_78:256" x="0" y="0" width="1444" height="791" filterUnits="userSpaceOnUse" color-interpolation-filters="sRGB">
<feFlood flood-opacity="0" result="BackgroundImageFix"/>
<feColorMatrix in="SourceAlpha" type="matrix" values="0 0 0 0 0 0 0 0 0 0 0 0 0 0 0 0 0 0 127 0" result="hardAlpha"/>
<feOffset dy="4"/>
<feGaussianBlur stdDeviation="1"/>
<feComposite in2="hardAlpha" operator="out"/>
<feColorMatrix type="matrix" values="0 0 0 0 0.816667 0 0 0 0 0.653333 0 0 0 0 0 0 0 0 0.2 0"/>
<feBlend mode="normal" in2="BackgroundImageFix" result="effect1_dropShadow_78:256"/>
<feBlend mode="normal" in="SourceGraphic" in2="effect1_dropShadow_78:256" result="shape"/>
</filter>
<linearGradient id="paint0_linear_78:256" x1="1.99999" y1="-2.53298e-06" x2="1439.88" y2="669.47" gradientUnits="userSpaceOnUse">
<stop stop-color="#45BCDB"/>
<stop offset="1" stop-color="#2DC97E"/>
</linearGradient>
<linearGradient id="paint1_linear_78:256" x1="1202.5" y1="311" x2="1202.5" y2="360" gradientUnits="userSpaceOnUse">
<stop stop-color="#8CFFC8"/>
<stop offset="1" stop-color="#72E2FF"/>
</linearGradient>
<linearGradient id="paint2_linear_78:256" x1="1260.5" y1="354" x2="1260.5" y2="403" gradientUnits="userSpaceOnUse">
<stop stop-color="#8CFFC8"/>
<stop offset="1" stop-color="#72E2FF"/>
</linearGradient>
<linearGradient id="paint3_linear_78:256" x1="256.5" y1="56" x2="256.5" y2="105" gradientUnits="userSpaceOnUse">
<stop stop-color="#8CFFC8"/>
<stop offset="1" stop-color="#72E2FF"/>
</linearGradient>
<linearGradient id="paint4_linear_78:256" x1="194.5" y1="99" x2="194.5" y2="148" gradientUnits="userSpaceOnUse">
<stop stop-color="#8CFFC8"/>
<stop offset="1" stop-color="#72E2FF"/>
</linearGradient>
</defs>
</svg>
